<mxfile host="Electron" modified="2024-12-18T02:54:41.559Z" agent="Mozilla/5.0 (Windows NT 10.0; Win64; x64) AppleWebKit/537.36 (KHTML, like Gecko) draw.io/24.2.5 Chrome/120.0.6099.109 Electron/28.1.0 Safari/537.36" etag="iyBvpxTGQBR_Q9QxU5dS" version="24.2.5" type="device">
  <diagram id="C5RBs43oDa-KdzZeNtuy" name="Page-1">
    <mxGraphModel dx="3189" dy="1384" grid="1" gridSize="10" guides="1" tooltips="1" connect="1" arrows="1" fold="1" page="1" pageScale="1" pageWidth="827" pageHeight="1169" math="0" shadow="0">
      <root>
        <mxCell id="WIyWlLk6GJQsqaUBKTNV-0" />
        <mxCell id="WIyWlLk6GJQsqaUBKTNV-1" parent="WIyWlLk6GJQsqaUBKTNV-0" />
        <mxCell id="FWQHCrg-YMvKmJAumSep-40" value="" style="endArrow=none;dashed=1;html=1;dashPattern=1 3;strokeWidth=2;rounded=0;" parent="WIyWlLk6GJQsqaUBKTNV-1" edge="1">
          <mxGeometry width="50" height="50" relative="1" as="geometry">
            <mxPoint x="400" y="880" as="sourcePoint" />
            <mxPoint x="880" y="880" as="targetPoint" />
          </mxGeometry>
        </mxCell>
        <mxCell id="FWQHCrg-YMvKmJAumSep-41" value="" style="endArrow=none;dashed=1;html=1;dashPattern=1 3;strokeWidth=2;rounded=0;" parent="WIyWlLk6GJQsqaUBKTNV-1" edge="1">
          <mxGeometry width="50" height="50" relative="1" as="geometry">
            <mxPoint x="400" y="640" as="sourcePoint" />
            <mxPoint x="880" y="640" as="targetPoint" />
          </mxGeometry>
        </mxCell>
        <mxCell id="4AU1inOxKgs4NgpyJQrt-2" value="" style="rounded=1;whiteSpace=wrap;html=1;fillColor=#3399FF;" parent="WIyWlLk6GJQsqaUBKTNV-1" vertex="1">
          <mxGeometry x="-340" y="100" width="280" height="120" as="geometry" />
        </mxCell>
        <mxCell id="4AU1inOxKgs4NgpyJQrt-3" value="&lt;span style=&quot;background-color: rgb(255, 255, 255);&quot;&gt;MyBatis configuration&lt;/span&gt;" style="text;html=1;align=center;verticalAlign=middle;whiteSpace=wrap;rounded=0;" parent="WIyWlLk6GJQsqaUBKTNV-1" vertex="1">
          <mxGeometry x="-250" y="108" width="120" height="30" as="geometry" />
        </mxCell>
        <mxCell id="4AU1inOxKgs4NgpyJQrt-4" value="&lt;span style=&quot;background-color: rgb(255, 255, 255);&quot;&gt;SqlMapConfig.xml&lt;/span&gt;&lt;div&gt;&lt;span style=&quot;background-color: rgb(255, 255, 255);&quot;&gt;runtime environment&lt;/span&gt;&lt;br&gt;&lt;/div&gt;" style="text;html=1;align=center;verticalAlign=middle;whiteSpace=wrap;rounded=0;" parent="WIyWlLk6GJQsqaUBKTNV-1" vertex="1">
          <mxGeometry x="-245" y="145" width="115" height="30" as="geometry" />
        </mxCell>
        <mxCell id="4AU1inOxKgs4NgpyJQrt-5" value="&lt;span style=&quot;background-color: rgb(255, 255, 255);&quot;&gt;mapper.xml&lt;/span&gt;" style="text;html=1;align=center;verticalAlign=middle;whiteSpace=wrap;rounded=0;" parent="WIyWlLk6GJQsqaUBKTNV-1" vertex="1">
          <mxGeometry x="-310" y="180" width="60" height="30" as="geometry" />
        </mxCell>
        <mxCell id="4AU1inOxKgs4NgpyJQrt-6" value="&lt;span style=&quot;background-color: rgb(255, 255, 255);&quot;&gt;mapper.xml&lt;/span&gt;" style="text;html=1;align=center;verticalAlign=middle;whiteSpace=wrap;rounded=0;" parent="WIyWlLk6GJQsqaUBKTNV-1" vertex="1">
          <mxGeometry x="-220" y="180" width="60" height="30" as="geometry" />
        </mxCell>
        <mxCell id="4AU1inOxKgs4NgpyJQrt-7" value="&lt;span style=&quot;background-color: rgb(255, 255, 255);&quot;&gt;mapper.xml&lt;/span&gt;" style="text;html=1;align=center;verticalAlign=middle;whiteSpace=wrap;rounded=0;" parent="WIyWlLk6GJQsqaUBKTNV-1" vertex="1">
          <mxGeometry x="-130" y="180" width="60" height="30" as="geometry" />
        </mxCell>
        <mxCell id="4AU1inOxKgs4NgpyJQrt-9" value="" style="rounded=1;whiteSpace=wrap;html=1;fillColor=#3399FF;" parent="WIyWlLk6GJQsqaUBKTNV-1" vertex="1">
          <mxGeometry x="-340" y="260" width="280" height="40" as="geometry" />
        </mxCell>
        <mxCell id="4AU1inOxKgs4NgpyJQrt-10" value="" style="rounded=1;whiteSpace=wrap;html=1;fillColor=#3399FF;" parent="WIyWlLk6GJQsqaUBKTNV-1" vertex="1">
          <mxGeometry x="-340" y="340" width="280" height="40" as="geometry" />
        </mxCell>
        <mxCell id="4AU1inOxKgs4NgpyJQrt-11" value="" style="rounded=1;whiteSpace=wrap;html=1;fillColor=#3399FF;" parent="WIyWlLk6GJQsqaUBKTNV-1" vertex="1">
          <mxGeometry x="-340" y="420" width="280" height="40" as="geometry" />
        </mxCell>
        <mxCell id="4AU1inOxKgs4NgpyJQrt-12" value="" style="rounded=1;whiteSpace=wrap;html=1;fillColor=#3399FF;" parent="WIyWlLk6GJQsqaUBKTNV-1" vertex="1">
          <mxGeometry x="-340" y="500" width="280" height="40" as="geometry" />
        </mxCell>
        <mxCell id="4AU1inOxKgs4NgpyJQrt-13" value="&lt;span style=&quot;background-color: rgb(255, 255, 255);&quot;&gt;SqlSessionFactoty&lt;/span&gt;" style="text;html=1;align=center;verticalAlign=middle;whiteSpace=wrap;rounded=0;" parent="WIyWlLk6GJQsqaUBKTNV-1" vertex="1">
          <mxGeometry x="-250" y="265" width="100" height="30" as="geometry" />
        </mxCell>
        <mxCell id="4AU1inOxKgs4NgpyJQrt-14" value="&lt;span style=&quot;background-color: rgb(255, 255, 255);&quot;&gt;SqlSession&lt;/span&gt;" style="text;html=1;align=center;verticalAlign=middle;whiteSpace=wrap;rounded=0;" parent="WIyWlLk6GJQsqaUBKTNV-1" vertex="1">
          <mxGeometry x="-240" y="345" width="80" height="30" as="geometry" />
        </mxCell>
        <mxCell id="4AU1inOxKgs4NgpyJQrt-15" value="&lt;span style=&quot;background-color: rgb(255, 255, 255);&quot;&gt;Executor&lt;/span&gt;" style="text;html=1;align=center;verticalAlign=middle;whiteSpace=wrap;rounded=0;" parent="WIyWlLk6GJQsqaUBKTNV-1" vertex="1">
          <mxGeometry x="-230" y="425" width="60" height="30" as="geometry" />
        </mxCell>
        <mxCell id="4AU1inOxKgs4NgpyJQrt-16" value="&lt;span style=&quot;background-color: rgb(255, 255, 255);&quot;&gt;Mapped Statememt&lt;/span&gt;" style="text;html=1;align=center;verticalAlign=middle;whiteSpace=wrap;rounded=0;" parent="WIyWlLk6GJQsqaUBKTNV-1" vertex="1">
          <mxGeometry x="-265" y="505" width="130" height="30" as="geometry" />
        </mxCell>
        <mxCell id="4AU1inOxKgs4NgpyJQrt-17" value="" style="html=1;verticalLabelPosition=bottom;align=center;labelBackgroundColor=#ffffff;verticalAlign=top;strokeWidth=2;strokeColor=#0080F0;shadow=0;dashed=0;shape=mxgraph.ios7.icons.data;" parent="WIyWlLk6GJQsqaUBKTNV-1" vertex="1">
          <mxGeometry x="-260" y="580" width="120" height="120" as="geometry" />
        </mxCell>
        <mxCell id="4AU1inOxKgs4NgpyJQrt-18" value="&lt;font style=&quot;font-size: 18px;&quot;&gt;&lt;b&gt;Datab&lt;/b&gt;&lt;/font&gt;&lt;b style=&quot;font-size: 18px; background-color: initial;&quot;&gt;ase&lt;/b&gt;" style="text;html=1;align=center;verticalAlign=middle;resizable=0;points=[];autosize=1;strokeColor=none;fillColor=none;" parent="WIyWlLk6GJQsqaUBKTNV-1" vertex="1">
          <mxGeometry x="-250" y="710" width="100" height="40" as="geometry" />
        </mxCell>
        <mxCell id="4AU1inOxKgs4NgpyJQrt-20" value="" style="shape=flexArrow;endArrow=classic;html=1;rounded=0;" parent="WIyWlLk6GJQsqaUBKTNV-1" edge="1">
          <mxGeometry width="50" height="50" relative="1" as="geometry">
            <mxPoint x="-200.24" y="220" as="sourcePoint" />
            <mxPoint x="-200.24" y="260" as="targetPoint" />
          </mxGeometry>
        </mxCell>
        <mxCell id="4AU1inOxKgs4NgpyJQrt-21" value="" style="shape=flexArrow;endArrow=classic;html=1;rounded=0;" parent="WIyWlLk6GJQsqaUBKTNV-1" edge="1">
          <mxGeometry width="50" height="50" relative="1" as="geometry">
            <mxPoint x="-200.24" y="300" as="sourcePoint" />
            <mxPoint x="-200.24" y="340" as="targetPoint" />
          </mxGeometry>
        </mxCell>
        <mxCell id="4AU1inOxKgs4NgpyJQrt-22" value="" style="shape=flexArrow;endArrow=classic;html=1;rounded=0;" parent="WIyWlLk6GJQsqaUBKTNV-1" edge="1">
          <mxGeometry width="50" height="50" relative="1" as="geometry">
            <mxPoint x="-200.24" y="380" as="sourcePoint" />
            <mxPoint x="-200.24" y="420" as="targetPoint" />
          </mxGeometry>
        </mxCell>
        <mxCell id="4AU1inOxKgs4NgpyJQrt-23" value="" style="shape=flexArrow;endArrow=classic;html=1;rounded=0;" parent="WIyWlLk6GJQsqaUBKTNV-1" edge="1">
          <mxGeometry width="50" height="50" relative="1" as="geometry">
            <mxPoint x="-200.24" y="460" as="sourcePoint" />
            <mxPoint x="-200.24" y="500" as="targetPoint" />
          </mxGeometry>
        </mxCell>
        <mxCell id="4AU1inOxKgs4NgpyJQrt-24" value="" style="shape=flexArrow;endArrow=classic;html=1;rounded=0;" parent="WIyWlLk6GJQsqaUBKTNV-1" edge="1">
          <mxGeometry width="50" height="50" relative="1" as="geometry">
            <mxPoint x="-200.24" y="540" as="sourcePoint" />
            <mxPoint x="-200.24" y="580" as="targetPoint" />
          </mxGeometry>
        </mxCell>
        <mxCell id="4AU1inOxKgs4NgpyJQrt-26" value="" style="rounded=1;whiteSpace=wrap;html=1;fillColor=#3399FF;" parent="WIyWlLk6GJQsqaUBKTNV-1" vertex="1">
          <mxGeometry x="-620" y="455.5" width="200" height="129" as="geometry" />
        </mxCell>
        <mxCell id="4AU1inOxKgs4NgpyJQrt-28" value="" style="rounded=1;whiteSpace=wrap;html=1;fillColor=#3399FF;" parent="WIyWlLk6GJQsqaUBKTNV-1" vertex="1">
          <mxGeometry x="20" y="460" width="200" height="129" as="geometry" />
        </mxCell>
        <mxCell id="4AU1inOxKgs4NgpyJQrt-29" value="" style="shape=flexArrow;endArrow=classic;html=1;rounded=0;" parent="WIyWlLk6GJQsqaUBKTNV-1" edge="1">
          <mxGeometry width="50" height="50" relative="1" as="geometry">
            <mxPoint x="-420" y="519.5799999999999" as="sourcePoint" />
            <mxPoint x="-340" y="519.5799999999999" as="targetPoint" />
          </mxGeometry>
        </mxCell>
        <mxCell id="4AU1inOxKgs4NgpyJQrt-30" value="" style="shape=flexArrow;endArrow=classic;html=1;rounded=0;" parent="WIyWlLk6GJQsqaUBKTNV-1" edge="1">
          <mxGeometry width="50" height="50" relative="1" as="geometry">
            <mxPoint x="-60" y="519.5799999999999" as="sourcePoint" />
            <mxPoint x="20" y="519.5799999999999" as="targetPoint" />
          </mxGeometry>
        </mxCell>
        <mxCell id="4AU1inOxKgs4NgpyJQrt-31" value="&lt;span style=&quot;background-color: rgb(255, 255, 255);&quot;&gt;SQL input mapping parameters&lt;/span&gt;" style="text;html=1;align=center;verticalAlign=middle;whiteSpace=wrap;rounded=0;" parent="WIyWlLk6GJQsqaUBKTNV-1" vertex="1">
          <mxGeometry x="-582.5" y="460" width="125" height="30" as="geometry" />
        </mxCell>
        <mxCell id="4AU1inOxKgs4NgpyJQrt-32" value="&lt;span style=&quot;background-color: rgb(255, 255, 255);&quot;&gt;HashMap&lt;/span&gt;" style="text;html=1;align=center;verticalAlign=middle;whiteSpace=wrap;rounded=0;" parent="WIyWlLk6GJQsqaUBKTNV-1" vertex="1">
          <mxGeometry x="-550" y="500" width="60" height="30" as="geometry" />
        </mxCell>
        <mxCell id="4AU1inOxKgs4NgpyJQrt-33" value="&lt;span style=&quot;background-color: rgb(255, 255, 255);&quot;&gt;basic data types&lt;/span&gt;" style="text;html=1;align=center;verticalAlign=middle;whiteSpace=wrap;rounded=0;" parent="WIyWlLk6GJQsqaUBKTNV-1" vertex="1">
          <mxGeometry x="-565" y="530" width="90" height="30" as="geometry" />
        </mxCell>
        <mxCell id="4AU1inOxKgs4NgpyJQrt-34" value="&lt;span style=&quot;background-color: rgb(255, 255, 255);&quot;&gt;Pojo&lt;/span&gt;" style="text;html=1;align=center;verticalAlign=middle;whiteSpace=wrap;rounded=0;" parent="WIyWlLk6GJQsqaUBKTNV-1" vertex="1">
          <mxGeometry x="-550" y="554.5" width="60" height="30" as="geometry" />
        </mxCell>
        <mxCell id="4AU1inOxKgs4NgpyJQrt-35" value="&lt;span style=&quot;background-color: rgb(255, 255, 255);&quot;&gt;SQL output mapping result&lt;/span&gt;" style="text;html=1;align=center;verticalAlign=middle;whiteSpace=wrap;rounded=0;" parent="WIyWlLk6GJQsqaUBKTNV-1" vertex="1">
          <mxGeometry x="60" y="469" width="120" height="30" as="geometry" />
        </mxCell>
        <mxCell id="4AU1inOxKgs4NgpyJQrt-37" value="&lt;span style=&quot;background-color: rgb(255, 255, 255);&quot;&gt;HashMap&lt;/span&gt;" style="text;html=1;align=center;verticalAlign=middle;whiteSpace=wrap;rounded=0;" parent="WIyWlLk6GJQsqaUBKTNV-1" vertex="1">
          <mxGeometry x="90" y="505" width="60" height="30" as="geometry" />
        </mxCell>
        <mxCell id="4AU1inOxKgs4NgpyJQrt-38" value="&lt;span style=&quot;background-color: rgb(255, 255, 255);&quot;&gt;basic data types&lt;/span&gt;" style="text;html=1;align=center;verticalAlign=middle;whiteSpace=wrap;rounded=0;" parent="WIyWlLk6GJQsqaUBKTNV-1" vertex="1">
          <mxGeometry x="75" y="530" width="90" height="30" as="geometry" />
        </mxCell>
        <mxCell id="4AU1inOxKgs4NgpyJQrt-39" value="&lt;span style=&quot;background-color: rgb(255, 255, 255);&quot;&gt;Pojo&lt;/span&gt;" style="text;html=1;align=center;verticalAlign=middle;whiteSpace=wrap;rounded=0;" parent="WIyWlLk6GJQsqaUBKTNV-1" vertex="1">
          <mxGeometry x="90" y="554.5" width="60" height="30" as="geometry" />
        </mxCell>
      </root>
    </mxGraphModel>
  </diagram>
</mxfile>
